# xmcd
#
# Track frame offsets: 
#        150
#        14126
#        27751
#        41960
#        51494
#        65399
#        76933
#        87855
#        97499
#        109726
#        118848
#        130423
#        141669
#        152479
#        164361
#        175715
#        187403
#        200021
#        211400
#        221845
#
# Disc length: 3117 seconds
#
# Revision: 0
# Processed by: cddbd v1.5.2PL0 Copyright (c) Steve Scherf et al.
# Submitted via: ExactAudioCopyFreeDBPlugin 1.0
#
DISCID=3d0c2b14
DTITLE=Lefty Frizzell - The Essential Recordings - CD2
DYEAR=2015
DGENRE=Country
TTITLE0=The Long Black Veil (1959)
TTITLE1=California Blues (Blue Yodel No4) (1953)
TTITLE2=Never No Mo' Blues (1953)
TTITLE3=You Can Always Count On Me (1954)
TTITLE4=Run 'Em Off (1953)
TTITLE5=I Love You Mostly (1954)
TTITLE6=Mama! (1954)
TTITLE7=Just Can't Live That Fast (Anymore) (1956)
TTITLE8=The Waltz Of The Angels (1956)
TTITLE9=From An Angel To A Devil (1957)
TTITLE10=Sick, Sober, And Sorry (1957)
TTITLE11=No One To Talk To (But The Blues) (1958)
TTITLE12=Is It Only That You're Lonely (1959)
TTITLE13=Tel Me, Dear (1957)
TTITLE14=Time Out For The Blues (1957)
TTITLE15=Signed, Sealed, And Delivered (1958)
TTITLE16=Release Me (1959)
TTITLE17=You're Humbuggin' Me (1958)
TTITLE18=She's Gone, Gone, Gone (1958)
TTITLE19=Cigarettes And Coffee Blues (1958)
EXTD=
EXTT0=
EXTT1=
EXTT2=
EXTT3=
EXTT4=
EXTT5=
EXTT6=
EXTT7=
EXTT8=
EXTT9=
EXTT10=
EXTT11=
EXTT12=
EXTT13=
EXTT14=
EXTT15=
EXTT16=
EXTT17=
EXTT18=
EXTT19=
PLAYORDER=
